<svg xmlns="http://www.w3.org/2000/svg" viewBox="0 0 625 120" fill="none" role="img" aria-label="Folunio"><title>Folunio — Página &amp; estrela</title><g transform="translate(9 45) scale(.84)" stroke-width="7" stroke-linecap="round" stroke-linejoin="round"><path d="M4 18L18 32L46 4" stroke="#a3c585"/><path d="M30 18L44 32L72 4" stroke="#e9e7da"/></g><g transform="translate(111 9)"><g fill="none" stroke="#e9e7da" stroke-width="12" stroke-linecap="round" stroke-linejoin="round"><path d="M18 84V29Q18 8 40 8H46M4 40H40"/><circle cx="83" cy="61" r="23"/><path d="M132 8V84M172 38V63Q172 84 194 84Q216 84 216 63V38M216 63V84M251 84V38M251 60Q251 38 273 38Q295 38 295 60V84M331 38V84"/><circle cx="385" cy="61" r="23"/></g><circle cx="331" cy="16" r="6" fill="#e9e7da"/></g><g transform="translate(568 64)" fill="none" stroke="#a3c585" stroke-width="3.3" stroke-linecap="round" stroke-linejoin="round"><path d="M-10 20V-20H7L19 -8V20Z M7 -20V-8H19 M-2 8H10"/></g><path d="M599,37 Q600,44 607,45 Q600,46 599,53 Q598,46 591,45 Q598,44 599,37Z" fill="#a3c585"/></svg>