<svg xmlns="http://www.w3.org/2000/svg" viewBox="0 0 625 120" fill="none" role="img" aria-label="Folunio"><title>Folunio — Órbita</title><g transform="translate(9 45) scale(.84)" stroke-width="7" stroke-linecap="round" stroke-linejoin="round"><path d="M4 18L18 32L46 4" stroke="#ffffff"/><path d="M30 18L44 32L72 4" stroke="#ffffff"/></g><g transform="translate(111 9)"><g fill="none" stroke="#ffffff" stroke-width="12" stroke-linecap="round" stroke-linejoin="round"><path d="M18 84V29Q18 8 40 8H46M4 40H40"/><circle cx="83" cy="61" r="23"/><path d="M132 8V84M172 38V63Q172 84 194 84Q216 84 216 63V38M216 63V84M251 84V38M251 60Q251 38 273 38Q295 38 295 60V84M331 38V84"/><circle cx="385" cy="61" r="23"/></g><circle cx="331" cy="16" r="6" fill="#ffffff"/><ellipse cx="385" cy="61" rx="39" ry="12" transform="rotate(-32 385 61)" fill="none" stroke="#ffffff" stroke-width="4"/></g><path d="M580,54 Q581,66 593,67 Q581,68 580,80 Q579,68 567,67 Q579,66 580,54Z" fill="#ffffff"/><path d="M600,41 Q601,45 605,46 Q601,47 600,51 Q599,47 595,46 Q599,45 600,41Z" fill="#ffffff"/></svg>