<svg xmlns="http://www.w3.org/2000/svg" viewBox="0 0 545 120" fill="none" role="img" aria-label="Folunio"><title>Folunio — Fólio</title><g transform="translate(9 45) scale(.84)" stroke-width="7" stroke-linecap="round" stroke-linejoin="round"><path d="M4 18L18 32L46 4" stroke="#d6402b"/><path d="M30 18L44 32L72 4" stroke="#1c1a17"/></g><g transform="translate(111 9)"><g fill="none" stroke="#1c1a17" stroke-width="12" stroke-linecap="square" stroke-linejoin="round"><path d="M18 84V29Q18 8 40 8H46M4 40H40"/><circle cx="83" cy="61" r="23"/><path d="M132 8V84M172 38V63Q172 84 194 84Q216 84 216 63V38M216 63V84M251 84V38M251 60Q251 38 273 38Q295 38 295 60V84M331 38V84"/><circle cx="385" cy="61" r="23"/></g><circle cx="331" cy="16" r="6" fill="#1c1a17"/></g></svg>